 <!DOCTYPE svg PUBLIC "-//W3C//DTD SVG 1.1//EN" "http://www.w3.org/Graphics/SVG/1.1/DTD/svg11.dtd">
<svg id="b00bafa8-0f12-4fac-9687-9a50739ca8d5" data-name="f00a6ec9-61d0-4e5f-b05a-c77931489668" xmlns="http://www.w3.org/2000/svg" xmlns:xlink="http://www.w3.org/1999/xlink" width="865.76" height="682.89" viewBox="0 0 865.76 682.89">
<defs>
<clipPath id="b008e192-d3de-4298-b863-137e851cf1e2">
<path d="M515.89,260s7.29-.38,12.79,7.33c0,0,11.65,15.17,24.46,72.47,0,0,6.08,19.48-18.26,27.88,0,0-37,14-42.89-42.63,0,0-14.7,4.1-18.72,6.6,0,0,3.83,52.31,3.83,53s1.43,10.27,6.68,12.42c0,0-1.43,53.74,8.6,100.08a144.86,144.86,0,0,0,3,21.94,92.32,92.32,0,0,1,2.36,16.12l4.54,76.48a2.68,2.68,0,0,0,1.57,2.28c3.59,1.62,13.12,4.95,21.46-.73,0,0,17.67-33.92,21-87,0,0,8.36-32,15.28-44.9,0,0,4.78,23.4,7.65,73.33,0,0,1.73,36.64,4.86,45.63a3.1,3.1,0,0,0,2.65,2.06c6.18.57,29,1.86,31.42-9.48,0,0,2.63-35.11-2.63-71.89,0,0-3.34-33.92-1.43-53.51,0,0,6.85-66.8-2.56-91.75a8.28,8.28,0,0,1,.16-6c1.47-3.68,1.83-13.4-8.11-38.86,0,0-11.77,21-23.09,2.32a28.75,28.75,0,0,1-3-7.06C563.46,311.55,546.89,245.12,515.89,260Z" fill="none"/>
</clipPath>
<style xmlns="http://www.w3.org/1999/xhtml">*, ::after, ::before { box-sizing: border-box; }
img, svg { vertical-align: middle; }
</style>
<style xmlns="http://www.w3.org/1999/xhtml">*, body, html { -webkit-font-smoothing: antialiased; }
img, svg { max-width: 100%; }
</style>
</defs>
<g id="b7b1f2e6-ca7d-4e2e-817f-29a33e4cff33" data-name="f288c4f6-0b70-4461-a5fe-7bddc1bb3f08">
<path d="M111.5,607.51c66.6,42.08,185.63,56.78,235.44,59,135.44,6.06,305.19,12.64,421.86-70.16,68.62-48.76,7.22-191.43-1.81-242s84.88-41.53,36.12-158.92S590,11.25,467.21,13.05s-126.41,84.88-213.1,121-121-9-184.2,68.63,32.5,191.42,47,227.54c8,19.87-26.38,42.06-35.48,56.53C47,541.27,68.19,580.2,111.5,607.51Z" fill="#3cdd84" data-primary="true"/>
<path d="M111.5,607.51c66.6,42.08,185.63,56.78,235.44,59,135.44,6.06,305.19,12.64,421.86-70.16,68.62-48.76,7.22-191.43-1.81-242s84.88-41.53,36.12-158.92S590,11.25,467.21,13.05s-126.41,84.88-213.1,121-121-9-184.2,68.63,32.5,191.42,47,227.54c8,19.87-26.38,42.06-35.48,56.53C47,541.27,68.19,580.2,111.5,607.51Z" fill="#fff" opacity="0.8" style="isolation:isolate"/>
</g>
<g id="fce7897b-483b-470c-9d66-cb2fcc4fa2b2" data-name="f1ff7662-b122-4570-ba24-3115d9c82164">
<path d="M66.21,553.11C71.62,575,88.4,593,111.59,607.6c66.6,42.08,185.63,56.78,235.44,59,135.44,6.06,305.19,12.64,421.86-70.16,15-10.64,23.74-25.72,28.22-43.35Z" fill="#3cdd84" data-primary="true"/>
<path d="M66.21,553.11C71.62,575,88.4,593,111.59,607.6c66.6,42.08,185.63,56.78,235.44,59,135.44,6.06,305.19,12.64,421.86-70.16,15-10.64,23.74-25.72,28.22-43.35Z" fill="#fff" opacity="0.6" style="isolation:isolate"/>
</g>
<g id="f313ebf7-7de7-48ce-83ba-0cddf527b6ab" data-name="b772d7a3-000e-479b-8e81-b6269830f8d7">
<rect x="138.54" y="477.43" width="42" height="17.75" fill="#ebebeb"/>
<rect x="115.11" y="499.81" width="42" height="17.75" fill="#ebebeb"/>
<rect x="517.25" y="364.38" width="42" height="17.75" fill="#ebebeb"/>
<rect x="493.82" y="386.77" width="42" height="17.75" fill="#ebebeb"/>
<rect x="766.77" y="499.81" width="42" height="17.75" fill="#ebebeb"/>
<rect x="743.34" y="153.28" width="42" height="17.75" fill="#ebebeb"/>
<rect x="766.77" y="175.66" width="42" height="17.75" fill="#ebebeb"/>
<rect x="470.4" y="364.38" width="42" height="17.75" fill="#ebebeb"/>
<rect x="138.54" y="153.28" width="42" height="17.75" fill="#ebebeb"/>
<path d="M743,139H534.11V46.6H743Zm-202.53-6.35H736.65V52.94H540.46Z" fill="#ebebeb"/>
<rect x="632.91" y="52.18" width="6.34" height="81.23" fill="#ebebeb"/>
</g>
<g id="e81d276e-7561-423b-9484-a8ea1c8f7648" data-name="a04bfff2-bebf-486b-b766-0684f16b553b">
<path d="M479.79,538.93c-3.39-3.33-7.78-7.35-13-5.91-4.89,1.35-6.76,6.68-7.63,11.12-1.13,5.72-2,11.5-2.91,17.27s-1.78,11.65-2.62,17.48c-.47,3.29-.93,6.58-1.4,9.87l-.69,4.94c-.22,1.62-.49,3.23-.58,4.86a.47.47,0,0,0,.49.43.46.46,0,0,0,.41-.33c.63-2.74.89-5.6,1.29-8.39s.81-5.6,1.22-8.41q1.23-8.34,2.5-16.69t2.59-16.69c.76-4.71,1.11-10.57,5.29-13.68a8,8,0,0,1,7.82-.74c2.75,1.05,4.94,3,7.1,5C479.76,539.14,479.86,539,479.79,538.93Z" fill="#bcbec0"/>
<path d="M475.15,535.53s-7-2.5-10.37,2.57.67,18,32.27,25.22a88.87,88.87,0,0,0-7.6-28.57C482.67,520,470.6,525.57,475.15,535.53Z" fill="#d1d3d4"/>
<path d="M495.24,561.21a25,25,0,0,0-1.59-2.57c-.53-.81-1.06-1.62-1.61-2.43-.4-.61-.82-1.21-1.23-1.81a1.14,1.14,0,0,1,.06-.45,4.48,4.48,0,0,0,.1-.82c.08-.59.17-1.18.26-1.78s.18-1.17.29-1.76a9.82,9.82,0,0,1,.42-1.86c0-.09-.13-.14-.14,0a8.73,8.73,0,0,1-.28,1c-.08.26-.15.53-.21.79-.16.6-.3,1.21-.44,1.81s-.23,1.12-.32,1.68c-.05.27-.09.54-.13.81-.56-.81-1.13-1.6-1.73-2.38-1.68-2.21-3.45-4.34-5.29-6.42h0c.17-3.32.09-6.61.82-9.88,0-.09-.11-.14-.13,0a34.26,34.26,0,0,0-1.18,9.45l-2-2.19c-1.54-1.66-3.11-3.28-4.71-4.88-.07-.06-.17,0-.1.1,2.66,2.87,5.19,5.85,7.65,8.89a53.09,53.09,0,0,0-5.78.22c-2.14.15-4.27.43-6.4.72-.09,0-.06.16,0,.14A62.87,62.87,0,0,1,478,547c2.06-.09,4.11,0,6.17,0q2,2.46,3.95,5H486.4c-1,0-1.92.08-2.88.16a44.08,44.08,0,0,0-5.83.87c-.09,0-.07.16,0,.14,1.94-.21,3.88-.4,5.84-.47h4.25a1.91,1.91,0,0,0,.79-.08l2.55,3.32c.67.88,1.33,1.77,2,2.67s1.26,1.92,2,2.78a.15.15,0,0,0,.18,0,.13.13,0,0,0,0-.17Z" fill="#bcbec0"/>
<path d="M478.17,542.71a20.1,20.1,0,0,0-3.38-.17c-1.13,0-2.26,0-3.38.08a.07.07,0,0,0,0,.14c1.15-.09,2.29-.11,3.44-.09s2.21.12,3.32.09C478.2,542.76,478.21,542.71,478.17,542.71Z" fill="#bcbec0"/>
<path d="M488.09,545.25c.13-1.07.26-2.16.49-3.22a.06.06,0,0,0,0-.08h-.1c-.17,1.06-.37,2.12-.53,3.18-.08.53-.15,1.06-.22,1.6a7.64,7.64,0,0,0-.13,1.51.1.1,0,0,0,.13.06h0a.09.09,0,0,0,.06-.06,8.5,8.5,0,0,0,.16-1.51C488,546.28,488,545.77,488.09,545.25Z" fill="#bcbec0"/>
<path d="M486,533.29c-.28,1.06-.55,2.12-.74,3.19-.1.54-.19,1.09-.26,1.63a7.14,7.14,0,0,0-.11,1.6H485a8.76,8.76,0,0,0,.25-1.52c.07-.52.15-1.05.24-1.57.19-1.1.39-2.19.66-3.28C486.17,533.25,486,533.21,486,533.29Z" fill="#bcbec0"/>
<path d="M444.85,597.4q-.25-3-.57-6-.63-5.91-1.43-11.79c-.52-3.91-1-7.83-1.65-11.73a28.47,28.47,0,0,0-1.21-5.32,5,5,0,0,0-2.95-3.33c-3.72-1.29-6.23,2.57-7.73,5.3,0,.08.08.14.13.07.9-1.3,3.38-4.92,6.2-4.75,1.9.11,3.42,1.45,4.33,6.19,2.27,11.79,4.32,35.72,4.55,37.29.13.83.72.79.72-.1C445.25,601.3,445,599.34,444.85,597.4Z" fill="#bcbec0"/>
<path d="M430.36,563.14s3.25-11.48-3.93-5.74c-12,9.6-12.43,30.33-12.43,30.33s21.27-12.35,23.91-20.49C441.84,555.06,430.36,563.14,430.36,563.14Z" fill="#d1d3d4"/>
<path d="M434.36,568.72c-1.67.34-3.36.56-5,.81l-2.39.33c-.54.08-1.08.13-1.63.2,1.59-2.19,3.18-4.36,4.7-6.59.06-.08-.07-.17-.14-.1a49.43,49.43,0,0,0-3.55,4.1c-.31-.89-.63-1.78-.94-2.66a26.18,26.18,0,0,1-1-3.11.06.06,0,0,0,0-.08h-.1m0,0c.29,1,.49,2.12.77,3.18a24.54,24.54,0,0,0,1,3c-.78,1-1.53,2-2.25,3.1-.37-1-.82-2-1.15-3.1,0-.08-.16,0-.13,0,.38,1.17.58,2.38.94,3.55-.49.71-1,1.43-1.44,2.15-.86,1.32-1.67,2.67-2.46,4a.32.32,0,0,0-.19.32c-1.34,2.32-2.62,4.68-3.88,7.06a.07.07,0,1,0,.1.1h0c1.26-2.35,2.66-4.64,4.12-6.89h0a3.21,3.21,0,0,1,.62,0l.74-.15c.55-.12,1.09-.27,1.64-.4,1.08-.27,2.14-.52,3.24-.71.09,0,0-.16,0-.14-1.29.25-2.58.39-3.88.54-.61.07-1.23.15-1.84.25h-.09c.77-1.16,1.54-2.31,2.33-3.45s1.56-2.23,2.36-3.33c.74-.11,1.47-.3,2.2-.44l2.47-.48c1.65-.33,3.28-.69,4.94-1,0,0-.05-.11-.12-.1Z" fill="#bcbec0"/>
<path d="M421.56,569.86l-.29-.92q-.28-.95-.48-1.92c0-.09-.16,0-.14,0,.14.65.29,1.29.44,1.94a13.91,13.91,0,0,0,.55,1.91.13.13,0,0,0,.16.08h0a.12.12,0,0,0,.08-.15h0C421.8,570.5,421.67,570.14,421.56,569.86Z" fill="#bcbec0"/>
<path d="M436.51,566.07c-1,.14-1.94.21-2.92.3s-1.95.22-2.92.36m0,.09c1-.07,1.95-.14,2.92-.27s2-.27,2.93-.34c.09,0,.08-.16,0-.14Z" fill="#bcbec0"/>
<path d="M460.5,582.87c-.38-8.45-.91-16.89-1.76-25.31-.42-4.19-.9-8.38-1.49-12.55a87.8,87.8,0,0,0-2.42-12.14,23.15,23.15,0,0,0-4-8.57,9.19,9.19,0,0,0-8.17-3.57c-3.7.46-6.68,2.79-9.25,5.32-2.89,2.84-5.54,5.94-8.22,9l-2,2.32c-.06.07,0,.17.1.1,2.62-3,5.34-5.93,8.18-8.72,2.63-2.58,5.34-5.4,9-6.47a9.27,9.27,0,0,1,5.22-.12,8.23,8.23,0,0,1,3.56,2.26,18.54,18.54,0,0,1,4,7.81c2.27,7.77,3.09,15.91,3.93,23.93s1.44,16.32,1.85,24.51.73,16.46,1.52,24.66c.1,1,.23,2,.36,3,.08.68,1.14.68,1.08,0C461.27,599.84,460.88,591.36,460.5,582.87Z" fill="#bcbec0"/>
<path d="M432.9,527s4.83-8.93-.88-11.8-24.78,18.44-30.35,49.59c0,0,30.82-13.64,41.28-27.23S441.55,521,432.9,527Z" fill="#d1d3d4"/>
<path d="M437.43,534.23c-3.46,0-6.92-.26-10.38-.24l1.95-2.23a33.71,33.71,0,0,0,2.71-3.14c.05-.07-.06-.18-.13-.12a23.33,23.33,0,0,0-2.62,2.64c-.87.92-1.73,1.84-2.59,2.77-1.33,1.44-2.64,2.89-3.91,4.35V532.5c0-2.38,0-4.78.18-7.15,0-.1-.13-.09-.14,0-.17,2.39-.41,4.77-.53,7.16-.06,1.17-.09,2.35-.1,3.53v2.81l-.61.67c-2.76,3.16-5.39,6.43-8,9.76a5.23,5.23,0,0,0,0-.56,10,10,0,0,0-.12-1.1c-.09-.79-.2-1.58-.31-2.37s-.23-1.49-.36-2.23-.34-1.67-.41-2.52c0-.1-.16-.08-.13,0a21.51,21.51,0,0,1,.28,2.53c.08.76.15,1.53.22,2.29s.13,1.52.21,2.29a10,10,0,0,0,.11,1.1,1.46,1.46,0,0,0,.07.55,1.11,1.11,0,0,0,.15.43l-1.32,1.72c-1.75,2.32-3.46,4.65-5.18,7,0,.07,0,.17.1.1,1.63-2.12,3.3-4.2,5-6.26,1.26,0,2.56,0,3.83-.06s2.67,0,4,0c.09,0,.08-.14,0-.14h-4c-1.22,0-2.46-.06-3.68,0,1.49-1.81,3-3.61,4.51-5.41l1.65-2a6.7,6.7,0,0,0,1.55,0h5.24c2.35,0,4.7-.11,7.06-.12.09,0,.08-.14,0-.14-2.35,0-4.71-.13-7.06-.19-1.14,0-2.28-.07-3.42-.08h-2.88l3.89-4.6a.18.18,0,0,0,.07-.08c1.26-1.49,2.52-3,3.8-4.46l.53-.6c3.59.11,7.18-.13,10.77-.06C437.53,534.38,437.52,534.23,437.43,534.23Z" fill="#bcbec0"/>
<path d="M435.66,540.35h-.84a.08.08,0,0,0,0,.09h.84C435.76,540.5,435.75,540.35,435.66,540.35Z" fill="#bcbec0"/>
<path d="M433.8,540.36c-1.11,0-2.22,0-3.33-.07H428.8a5.75,5.75,0,0,0-1.55,0v.1a6.2,6.2,0,0,0,1.55.11h5C433.89,540.51,433.89,540.37,433.8,540.36Z" fill="#bcbec0"/>
<path d="M424.11,550.77a44.45,44.45,0,0,0-6.82-.62m0,.05c2.27.22,4.53.34,6.78.7.09,0,.13-.12,0-.13Z" fill="#bcbec0"/>
<path d="M414.84,540.85a1.68,1.68,0,0,0-.07-.59c-.06-.45-.13-.89-.2-1.34-.13-.84-.28-1.69-.44-2.53,0-.08-.15-.06-.14,0,.11.87.2,1.74.28,2.62,0,.43.07.86.11,1.29a3.61,3.61,0,0,0,.18,1.22.17.17,0,0,0,.23.06l.06-.06A1.52,1.52,0,0,0,414.84,540.85Z" fill="#bcbec0"/>
<path d="M460.2,515.5c-1.11-2-2.51-4.77-5.26-4.59-2.28.14-3.3,2.46-3.79,4.38-1.5,5.93-1.6,12.18-1.9,18.26-.61,12.85-1.17,25.71-1.25,38.57v10.7c0,3.63,0,7.29.26,10.92a.27.27,0,0,0,.32.21h0a.25.25,0,0,0,.21-.21c0-3.1-.09-6.22-.1-9.33s0-6.07.06-9.1q.15-9.22.49-18.44c.23-6.11.5-12.21.75-18.32q.19-4.59.4-9.15c.13-3,.26-5.92.6-8.86.19-1.64.43-3.29.78-4.91a6.79,6.79,0,0,1,1.42-3.3,3.11,3.11,0,0,1,4-.29,8.53,8.53,0,0,1,2.85,3.55C460.12,515.66,460.24,515.58,460.2,515.5Z" fill="#bcbec0"/>
<path d="M459.45,514.52s-2.26-8,2.74-4c8.33,6.66,8.63,21.13,8.63,21.13s-14.81-8.6-16.65-14.28C451.43,508.92,459.45,514.52,459.45,514.52Z" fill="#d1d3d4"/>
<path d="M467.7,525.72c-.13-.22-.28-.44-.42-.66a3.86,3.86,0,0,0,0-.68v-1a19,19,0,0,1,.07-2,.07.07,0,0,0-.14,0c0,.66-.06,1.32-.08,2v1.42c-.58-.9-1.17-1.79-1.79-2.67-.18-.26-.37-.5-.55-.76a15.17,15.17,0,0,1-.05-2.61c0-.93,0-1.85.06-2.78a.07.07,0,1,0-.14,0c0,1-.08,1.93-.13,2.9q0,1,0,2.07c-1.43-2-3-3.82-4.49-5.69a.07.07,0,1,0-.11.09h0c1,1.2,1.87,2.44,2.76,3.69-1.74-.41-3.51-.64-5.29-.9a.07.07,0,0,0,0,.14c1.87.28,3.71.75,5.57,1.16h0l2.11,3,.84,1.23h-.08l-.58-.08-1.23-.11c-.85-.07-1.71-.11-2.56-.16-.09,0-.09.14,0,.15a23.7,23.7,0,0,1,2.52.17l1.32.16.58.07H466l1.42,2.1c.84,1.24,1.59,2.56,2.48,3.76,0,.07.15,0,.12-.08A39.72,39.72,0,0,0,467.7,525.72Z" fill="#bcbec0"/>
<path d="M464,516.69v-.94a14.8,14.8,0,0,1,.08-2,.07.07,0,1,0-.14,0c0,.65-.07,1.29-.1,1.94v1.45a1.19,1.19,0,0,0,0,.46.06.06,0,1,0,.12,0h0a1.55,1.55,0,0,0,0-.43Z" fill="#bcbec0"/>
<path d="M462.19,520a13.66,13.66,0,0,0-1.68-.17c-.61-.05-1.22-.11-1.83-.19a.07.07,0,0,0,0,.14c1.17.08,2.33.29,3.5.33C462.24,520.14,462.25,520,462.19,520Z" fill="#bcbec0"/>
<path d="M466.84,520.05v1.65a1.35,1.35,0,0,0,0,.49m.06,0a.45.45,0,0,0,0-.23v-1.64a.81.81,0,0,1,0-.31c.15-.1-.16-.1-.06,0Z" fill="#bcbec0"/>
<path d="M460.54,558.14c-3.11-2.34-5.91-5.7-10.1-5.87-3.46-.13-5.88,2.47-7.27,5.37a29.7,29.7,0,0,0-1.69,4.77q-.94,3.29-1.77,6.6c-1.08,4.34-2,8.73-2.77,13.14-.42,2.46-.81,4.93-1.12,7.4a60.2,60.2,0,0,0-.73,7.58.38.38,0,0,0,.39.39h0a.4.4,0,0,0,.38-.3c.42-2.07.6-4.21.91-6.3s.62-4.21,1-6.31q1.07-6.29,2.48-12.52c.89-3.92,1.77-7.9,3-11.72.91-2.73,2.36-5.92,5.32-6.91,4.49-1.49,8.57,2.31,11.86,4.78C460.52,558.31,460.62,558.21,460.54,558.14Z" fill="#bcbec0"/>
<path d="M457.36,555.92s-2.87-8.2,1.28-9.81c6.22-2.41,22.51,15.94,19.32,44,0,0-12.58-6.93-21.87-14.73s-11.68-18-7.58-20.62S457.36,555.92,457.36,555.92Z" fill="#d1d3d4"/>
<path d="M476,584.14a21.31,21.31,0,0,0-1.51-2.83c-.53-1-1.07-1.92-1.63-2.87-1.08-1.85-2.15-3.7-3.26-5.54l-.55-.89a.55.55,0,0,1,.07-.33l.19-.81c.14-.61.24-1.22.36-1.84.22-1.2.43-2.42.76-3.6a.07.07,0,1,0-.14,0c-.26,1.21-.64,2.39-1,3.57-.17.57-.36,1.15-.51,1.74a2.41,2.41,0,0,1-.16.6c-1.34-2.19-2.7-4.38-4.16-6.49a2.73,2.73,0,0,0,.14-.9,10.29,10.29,0,0,1,.14-1.23c.11-.92.22-1.85.35-2.77a52.13,52.13,0,0,1,1-5.39c0-.09-.12-.11-.14,0-.45,1.77-.94,3.54-1.27,5.33-.17.88-.32,1.77-.44,2.65-.06.45-.11.9-.15,1.34a1.07,1.07,0,0,1,0,.4c-.46-.63-.91-1.27-1.38-1.89-1.44-1.89-2.93-3.74-4.43-5.58a.07.07,0,0,0-.12.08,98.67,98.67,0,0,1,7.07,10.25l1.23,2H466c-.53-.07-1.06-.1-1.59-.15-1.06-.1-2.11-.2-3.17-.28-2.12-.17-4.25-.3-6.37-.52a.07.07,0,1,0,0,.14c2.14.24,4.28.58,6.41.89l3.15.42a12.37,12.37,0,0,0,2.43.25l2.5,4.06a2.62,2.62,0,0,0-.56,0h-7.1c-.09,0-.08.14,0,.14,1.39,0,2.77.09,4.15.16l2,.12,1,.07a2.08,2.08,0,0,0,.86,0l2.13,3.45c.65,1.06,1.31,2.12,2,3.17a26.26,26.26,0,0,0,2.13,3.21S476.08,584.22,476,584.14Z" fill="#bcbec0"/>
<path d="M470.05,561.42a20.47,20.47,0,0,1-.57,2.67c-.23.91-.49,1.81-.79,2.7a.07.07,0,0,0,0,.1h0a.11.11,0,0,0,.11,0c.28-.89.53-1.78.75-2.68s.36-1.83.58-2.73a.07.07,0,0,0,0-.08h0s-.07,0-.08.06Z" fill="#bcbec0"/>
<path d="M460.8,566.91a1,1,0,0,0-.69-.26l-1.18-.16-2.22-.27c-1.53-.18-3.07-.33-4.6-.52a.07.07,0,1,0,0,.14c1.44.17,2.88.39,4.33.58.7.1,1.41.2,2.12.28l1,.11a3.31,3.31,0,0,1,1.17.2C460.8,567.05,460.85,567,460.8,566.91Z" fill="#bcbec0"/>
<path d="M470,579.27c-.72-.06-1.45-.09-2.17-.11H466.2a4,4,0,0,1-.69,0c-.1,0-.11.16,0,.14a3.42,3.42,0,0,1,.64,0h.57l1.1.06c.72,0,1.45.09,2.18.09C470.11,579.42,470.11,579.28,470,579.27Z" fill="#bcbec0"/>
<path d="M474.46,576.14l.24-1.23c.15-.81.3-1.62.44-2.43a.07.07,0,0,0-.14,0c-.17.79-.35,1.58-.53,2.37-.09.39-.18.79-.26,1.18a3.35,3.35,0,0,1-.11.55,1.62,1.62,0,0,0-.07.58c0,.07.11.12.16,0A3,3,0,0,0,474.46,576.14Z" fill="#bcbec0"/>
<polygon points="472.79 600.35 472.09 611.97 470.02 646.27 427.61 646.27 425.54 611.97 424.84 600.35 472.79 600.35" fill="#6d6e71"/>
<polygon points="472.79 600.35 472.09 611.97 425.54 611.97 424.84 600.35 472.79 600.35" fill="#263238"/>
<rect x="421.59" y="592.13" width="54.44" height="11.63" fill="#6d6e71"/>
</g>
<rect x="340.03" y="13.08" width="12.8" height="86.01" fill="#2f2e41" data-secondary="true"/>
<rect x="365.56" y="13.08" width="4.24" height="86.01" fill="#2f2e41" data-secondary="true"/>
<rect x="375.56" y="13.08" width="4.24" height="86.01" fill="#2f2e41" data-secondary="true"/>
<path d="M381.08,542c0,2.09-1.27,3.8-2.77,3.8s-2.76-1.7-2.76-3.8,1.26-3.81,2.76-3.81S381.08,539.91,381.08,542Z" fill="#a6a6a6"/>
<rect x="388.14" y="441.06" width="4.24" height="90.43" fill="#2f2e41" data-secondary="true"/>
<polygon points="388.15 531.49 392.39 531.49 377.82 543.74 377.82 540.3 388.15 531.49" fill="#2f2e41" data-secondary="true"/>
<rect x="365.81" y="441.06" width="6.39" height="103.22" fill="#c7c7c7"/>
<ellipse cx="356.78" cy="553.24" rx="2.76" ry="3.79" fill="#a6a6a6"/>
<polygon points="365.81 544.28 372.2 544.28 356.27 555.7 356.27 551.03 365.81 544.28" fill="#c7c7c7"/>
<path d="M390.57,542c0,2.09-1.26,3.8-2.76,3.8s-2.76-1.7-2.76-3.8,1.26-3.81,2.76-3.81S390.57,539.91,390.57,542Z" fill="#a6a6a6"/>
<rect x="398.15" y="441.06" width="4.24" height="90.43" fill="#2f2e41" data-secondary="true"/>
<polygon points="398.15 531.49 402.38 531.49 387.81 543.74 387.81 540.3 398.15 531.49" fill="#2f2e41" data-secondary="true"/>
<path d="M576.83,602.39s.11,7.24-2.52,12.5c0,0,15,11.89,27.71.11V600.35S593.44,603.51,576.83,602.39Z" fill="#f9b499"/>
<path d="M574.31,614.89s-2.24.08-7.4,2.29a61.41,61.41,0,0,1-7.2,2.64c-11.36,3.29-41.19,12.73-36.33,19.91h85.51s-.42-20.7-6.87-25.48C602,614.25,587.09,622.29,574.31,614.89Z" fill="#3cdd84" data-primary="true"/>
<path d="M574.31,614.89s-2.24.08-7.4,2.29a61.41,61.41,0,0,1-7.2,2.64c-11.36,3.29-41.19,12.73-36.33,19.91h85.51s-.42-20.7-6.87-25.48C602,614.25,587.09,622.29,574.31,614.89Z" opacity="0.2" style="isolation:isolate"/>
<rect x="523.38" y="639.73" width="85.51" height="4.3" fill="#2f2e41" data-secondary="true"/>
<rect x="523.38" y="639.73" width="85.51" height="4.3" opacity="0.2" style="isolation:isolate"/>
<polygon points="256.88 326.42 429.5 279.82 494.44 300.18 340.55 343.5 256.88 326.42" fill="#d1d3d4"/>
<polygon points="350.5 261.47 350.5 317.87 485.63 281.18 485.63 235.98 350.5 261.47" fill="#d1d3d4"/>
<polygon points="350.5 261.47 485.63 237.89 485.63 187.27 350.5 205.05 350.5 261.47" fill="#939598"/>
<path d="M343.27,112.69,340.55,334,494,294V93.64Zm7.23,205.18V123.42l132-16.33L484,281.7Z" fill="#e6e7e8"/>
<polygon points="420.57 198.55 473.27 192.19 473.27 107.9 420.57 114.56 420.57 198.55" fill="#d1d3d4"/>
<polygon points="473.27 107.9 484.1 106.57 485.63 189.96 473.27 192.19 473.27 107.9" fill="#bcbec0"/>
<polygon points="256.88 101.8 343.27 112.69 340.55 334.03 256.88 317.35 256.88 101.8" fill="#bcbec0"/>
<polygon points="256.88 101.8 404.79 85.48 493.95 93.64 343.27 112.69 256.88 101.8" fill="#d1d3d4"/>
<polygon points="420.57 198.55 416.74 198.01 416.74 114.9 420.57 114.56 420.57 198.55" fill="#bcbec0"/>
<path d="M413.92,253s7.8-44.52,23.49-57.72a8,8,0,0,1,11.26,1.14l.17.22c3.53,4.63,12.62,10.65,19,10.23" fill="none" stroke="#0071f2" stroke-miterlimit="10" stroke-width="4"/>
<path d="M408.8,248.5l-1.94-.48c.45-1.84,11.21-45.36,27.95-58.84,5.64-4.54,11.56-3.75,16.66,2.22,3.23,3.79,12.07,9.65,15.18,7.39l1.18,1.62c-4.62,3.34-14.63-3.89-17.88-7.71-4.41-5.16-9.08-5.82-13.88-2C419.85,203.79,408.91,248.05,408.8,248.5Z" fill="#2f2e41" data-secondary="true"/>
<path d="M463.89,190s-3.25,17.2,6.95,24.85a25.33,25.33,0,0,1,1.53-12.43S463.9,200.15,463.89,190Z" fill="#2f2e41" data-secondary="true"/>
<path d="M463.89,190s-3.25,17.2,6.95,24.85a25.33,25.33,0,0,1,1.53-12.43S463.9,200.15,463.89,190Z" opacity="0.2" style="isolation:isolate"/>
<path d="M416.74,249.62s-.8,3,11.7,9.11c0,0,21.68,23.16,33.14,39.4a76.78,76.78,0,0,1,11.69-12.48l7-6.09L438.7,248.88s2.47-18.21-2.34-26.91a8.06,8.06,0,0,0-7.16-4c-5.26,0-15.48.59-15.3,4.38a2.33,2.33,0,0,0,2.29,2.09l6.74-.14a.3.3,0,0,1,.28.32.17.17,0,0,1,0,.07,101.28,101.28,0,0,0-3.28,9.74A90.53,90.53,0,0,0,416.74,249.62Z" fill="#f9b499"/>
<path d="M340.55,343.5s-1.65,136.37,0,135.86S494,424,494,424l.49-123.83Z" fill="#e6e7e8"/>
<polygon points="349.75 350.54 349.75 463.26 487.31 419.48 485.55 312.32 349.75 350.54" fill="none" stroke="#d1d3d4" stroke-miterlimit="10"/>
<line x1="435.44" y1="326.42" x2="435.44" y2="435.99" fill="none" stroke="#d1d3d4" stroke-miterlimit="10"/>
<path d="M424.39,405.65a1.67,1.67,0,0,1-1.67-1.67h0V370.85a1.67,1.67,0,1,1,3.34,0h0V404A1.68,1.68,0,0,1,424.39,405.65Z" fill="#d1d3d4"/>
<path d="M445.09,399.44a1.67,1.67,0,0,1-1.67-1.67h0V364.65a1.67,1.67,0,0,1,3.34,0h0v33.12A1.67,1.67,0,0,1,445.09,399.44Z" fill="#d1d3d4"/>
<polygon points="256.88 326.42 340.55 343.5 340.55 479.36 256.88 463.26 256.88 326.42" fill="#bcbec0"/>
<path d="M506.4,242.73s5.32,6.69,7.11,18.47a21.52,21.52,0,0,1,15.71-2.86s12.14-2.14,14.28-12.14a39.91,39.91,0,0,1-8.22-15.3,18.48,18.48,0,0,1-12.6-14.61s-.81,5.68-6.06,6.19C516.62,222.48,521.44,233.91,506.4,242.73Z" fill="#f9b499"/>
<path d="M506.4,242.73a46.11,46.11,0,0,1,4.62,8.83s11.36-13.8,6.21-22.83C517.23,228.73,517.15,237.12,506.4,242.73Z" fill="#f7a48b"/>
<ellipse cx="493.95" cy="216.3" rx="22.36" ry="29.3" transform="translate(-41.97 275.95) rotate(-30)" fill="#f9b499"/>
<path d="M465.27,183s-12.1,28.43,35.27,22.11c0,0,5.82-.79,10,11.18h12.12s0,9.88,12.6,14.61c0,0-2.1-7.36,2.64-18.42,0,0,10-34.21-21.3-45.27,0,0-19-8.38-29.24,8.42C487.38,175.63,471.06,168.79,465.27,183Z" fill="#2f2e41" data-secondary="true"/>
<line x1="493.95" y1="324.44" x2="520.25" y2="317.35" fill="none" stroke="#ed1c24" stroke-miterlimit="10"/>
<path d="M350.5,236s6.71,7.71,0,25.49" fill="none" stroke="#d1d3d4" stroke-miterlimit="10"/>
<path d="M350.5,231.54s13.55.37,6.23,28.84l13.82-2.53s5.85-20.63-.33-32.81a11.31,11.31,0,0,0-7.25-5.72c-3.92-1-9.82-2.3-12.47-1.38Z" fill="#2f2e41" data-secondary="true"/>
<path d="M350.5,209.43s37.26-8.56,40.13,13l1.27,25.78" fill="none" stroke="#bcbec0" stroke-miterlimit="10"/>
<path d="M375,201.82s29.77,7,22.62,46.44" fill="none" stroke="#e6e7e8" stroke-miterlimit="10"/>
<path d="M502.32,611.67s.89,9.23-3.37,13.49c0,0,11.14,8.46,27.35-1l-.95-11S511.6,619.32,502.32,611.67Z" fill="#f9b499"/>
<path d="M499,625.16s-3-.63-8.18,1.57a61.32,61.32,0,0,1-7.19,2.65c-11.37,3.29-41.19,12.73-36.34,19.91H532.8s0-20.31-6.45-25.09C526.3,624.2,511.72,632.56,499,625.16Z" fill="#3cdd84" data-primary="true"/>
<rect x="447.24" y="649.29" width="85.51" height="4.3" fill="#2f2e41" data-secondary="true"/>
<ellipse cx="516.62" cy="212.48" rx="6.56" ry="10" fill="#f9b499"/>
<path d="M432.25,261.63C434,263.1,464.68,285,464.68,285L475,275.62l5.34,3.94-16.4,20.62Z" fill="#f7a48b"/>
<path d="M405.92,236.77s-3.19,3.83,2.23,6.69c0,0,8.28,5.74,8.59-1.59,0,0,2.87-.32,1.28-5.1,0,0,3.18-.91,2.55-5.87,0,0,4.13-1.2.08-6.29,0,0-14.73-14.51-12.82-2.13,0,0-4.46,3.83-1.28,8.42C406.55,230.9,403.05,234.23,405.92,236.77Z" fill="#f9b499"/>
<line x1="407.83" y1="222.48" x2="420.57" y2="230.9" fill="none" stroke="#f7a48b" stroke-miterlimit="10"/>
<line x1="406.55" y1="230.9" x2="418.02" y2="236.77" fill="none" stroke="#f7a48b" stroke-miterlimit="10"/>
<line x1="405.92" y1="236.77" x2="416.74" y2="241.87" fill="none" stroke="#f7a48b" stroke-miterlimit="10"/>
<g opacity="0.2" style="isolation:isolate">
<path d="M363.85,259.15l-.48-.14c3.59-11.89,3.45-21.16-.41-27.56a15.59,15.59,0,0,0-9.4-7.2l.1-.5a16.27,16.27,0,0,1,9.73,7.44C367.33,237.72,367.48,247.13,363.85,259.15Z"/>
</g>
<path d="M350.5,209.43s24.52-4.93,30.73,13c0,0,4.14,18.18,0,33.79a45.42,45.42,0,0,1-10.68,1.58s3.91-22.3-1.63-33.15a10.33,10.33,0,0,0-6-5,32.26,32.26,0,0,0-12.4-1.76Z" fill="#3cdd84" data-primary="true"/>
<g opacity="0.2" style="isolation:isolate">
<path d="M375.62,258.32l-.48-.12c.09-.35,8.64-34.77-4.69-40.49-.1-.05-10.47-4.57-18.3-3.63l-.06-.5c8-1,18.46,3.62,18.56,3.67C384.37,223.14,376,256.89,375.62,258.32Z"/>
</g>
<path d="M409.74,266.39s22.9,66.61,43.31,67.2c0,0,9.23,1.94,21.9-2.36l19-6.79s-1.25-29-19-40c0,0-10.42,7.46-11.06,11,0,0-25.85-32.83-40.11-39.39a19.3,19.3,0,0,1-2.27-1.26c-5-3.13-23.6-13.58-39.16-6.48,0,0-8.92,1.59-7.33,4.78,0,0-9.93,2.28-.19,6.55C374.83,259.57,385.22,269.47,409.74,266.39Z" fill="#f9b499"/>
<line x1="375.02" y1="253.02" x2="387.44" y2="255.25" fill="none" stroke="#f7a48b" stroke-miterlimit="10"/>
<path d="M513.51,261.2S482.44,275.12,475,284.41c0,0,14.93,9.25,17.34,44.24,0,0,5.51,44.66,38.36,40,0,0,28.11-3.33,23.83-28.32C554.48,340.35,534.57,246.2,513.51,261.2Z" fill="#3cdd84" data-primary="true"/>
<path d="M543.5,246.2s1.85-3.91,7.75,3.12c0,0,34.78,37.51,42.41,81.57,0,0-11.43,20.39-22.51,3.28a30.65,30.65,0,0,1-4.18-8.44c-3.19-12.18-15.42-55.76-37.75-67.39C529.22,258.34,541.87,255.78,543.5,246.2Z" fill="#3cdd84" data-primary="true"/>
<path id="e5e6d4c9-09dc-47c5-b000-98ed5121466e" data-name="be00b117-eb5c-43a8-afbd-40fee5670b25" d="M515.89,260s7.29-.38,12.79,7.33c0,0,11.65,15.17,24.46,72.47,0,0,6.08,19.48-18.26,27.88,0,0-34.67,13.53-42.89-42.63,0,0-14.7,4.1-18.72,6.6,0,0,3.83,52.31,3.83,53s1.43,10.27,6.68,12.42c0,0-1.43,53.74,8.6,100.08a144.86,144.86,0,0,0,3,21.94,92.32,92.32,0,0,1,2.36,16.12l4.54,76.48a2.68,2.68,0,0,0,1.57,2.28c3.59,1.62,13.12,4.95,21.46-.73,0,0,17.67-33.92,21-87,0,0,8.36-32,15.28-44.9,0,0,4.78,23.4,7.65,73.33,0,0,1.73,36.64,4.86,45.63a3.1,3.1,0,0,0,2.65,2.06c6.18.57,29,1.86,31.42-9.48,0,0,2.63-35.11-2.63-71.89,0,0-3.34-33.92-1.43-53.51,0,0,6.85-66.8-2.56-91.75a8.28,8.28,0,0,1,.16-6c1.47-3.68,1.83-13.4-8.11-38.86,0,0-11.77,21-23.09,2.32a28.75,28.75,0,0,1-3-7.06C563.46,311.55,546.89,245.12,515.89,260Z" fill="#2f2e41" data-secondary="true"/>
<g clip-path="url(#b008e192-d3de-4298-b863-137e851cf1e2)">
<path d="M561.65,481.37l18.79-41.46s-.91,21-5,51.61c0,0-.92,94.53,18.72,102.29a13.32,13.32,0,0,0,14.09-.9s.16,13-31.4,9.48c0,0-3.36-.13-4.66-12.29C572.17,590.1,565.7,503.19,561.65,481.37Z" opacity="0.2" style="isolation:isolate"/>
</g>
<g opacity="0.2">
<path d="M487.31,397.88c4.86.65,9.72,1.11,14.6,1.31s9.76.31,14.63.21,9.73-.36,14.57-.85,9.66-1.1,14.44-2a138.21,138.21,0,0,0,14.19-3.28c1.17-.31,2.34-.65,3.49-1s2.32-.71,3.47-1.11c2.28-.83,4.59-1.61,6.83-2.54s4.46-1.92,6.7-2.89c1.1-.51,2.18-1.07,3.27-1.61l1.64-.81,1.6-.88a126.36,126.36,0,0,0,12.46-7.69,102.06,102.06,0,0,1-25,15.48,125.67,125.67,0,0,1-28.2,8.51,152.58,152.58,0,0,1-29.41,2.41A141.31,141.31,0,0,1,487.31,397.88Z"/>
</g>
<polygon points="350.5 207.09 416.74 198.01 416.74 114.9 350.5 123.42 350.5 207.09" fill="#d1d3d4"/>
<rect x="275.16" y="595.66" width="106.31" height="43.12" fill="#3cdd84" data-primary="true"/>
<rect x="270.48" y="583.97" width="115.69" height="11.69" fill="#3cdd84" data-primary="true"/>
<rect x="275.16" y="595.66" width="106.32" height="8.23" opacity="0.1" style="isolation:isolate"/>
<rect x="317.44" y="591.21" width="23.24" height="8.92" fill="#2f2e41" data-secondary="true"/>
<polygon points="349.04 583.97 343.53 583.97 343.53 576.99 313.11 576.99 313.11 583.97 307.6 583.97 307.6 571.48 349.04 571.48 349.04 583.97" fill="#2f2e41" data-secondary="true"/>
</svg>